<?xml version="1.0" encoding="UTF-8" standalone="no"?><!-- Generator: Gravit.io --><svg xmlns="http://www.w3.org/2000/svg" xmlns:xlink="http://www.w3.org/1999/xlink" style="isolation:isolate" viewBox="0 0 1920 1080" width="1920pt" height="1080pt"><defs><clipPath id="_clipPath_MuDgvSDLqLvwSlpfB62dEPj0KGbrYM5E"><rect width="1920" height="1080"/></clipPath></defs><g clip-path="url(#_clipPath_MuDgvSDLqLvwSlpfB62dEPj0KGbrYM5E)"><path d="M 105.05 255 L 781.95 255 C 825.993 255 861.75 290.757 861.75 334.8 L 861.75 745.2 C 861.75 789.243 825.993 825 781.95 825 L 105.05 825 C 61.007 825 25.25 789.243 25.25 745.2 L 25.25 334.8 C 25.25 290.757 61.007 255 105.05 255 Z" style="stroke:none;fill:#2723FF;stroke-miterlimit:10;"/><g clip-path="url(#_clipPath_FVAC4HdWIeWJoc7YRPtGfbj0vL1UvpKw)"><text transform="matrix(1,0,0,1,152,683.538)" style="font-family:'Open Sans';font-weight:700;font-size:370px;font-style:normal;fill:#ffffff;stroke:none;">UN</text></g><defs><clipPath id="_clipPath_FVAC4HdWIeWJoc7YRPtGfbj0vL1UvpKw"><rect x="0" y="0" width="583" height="503.872" transform="matrix(1,0,0,1,152,288.064)"/></clipPath></defs><g clip-path="url(#_clipPath_ux2n5fSOBN8FZJKtRyEqO5su1wPchXYp)"><text transform="matrix(1,0,0,1,861.75,646.683)" style="font-family:'Open Sans';font-weight:700;font-size:275px;font-style:normal;fill:#ffffff;stroke:none;">NAMED</text></g><defs><clipPath id="_clipPath_ux2n5fSOBN8FZJKtRyEqO5su1wPchXYp"><rect x="0" y="0" width="1033" height="374.5" transform="matrix(1,0,0,1,861.75,352.75)"/></clipPath></defs></g></svg>